<mxfile host="app.diagrams.net" modified="2021-08-18T10:21:39.435Z" agent="5.0 (Windows NT 10.0; Win64; x64) AppleWebKit/537.36 (KHTML, like Gecko) Chrome/92.0.4515.131 Safari/537.36" etag="OJaW3Vc2ssS47ouD5v0d" version="14.9.6" type="github">
  <diagram id="-yAz3KXv2Li3pUXSeUJh" name="Page-1">
    <mxGraphModel dx="2249" dy="762" grid="1" gridSize="10" guides="1" tooltips="1" connect="1" arrows="1" fold="1" page="1" pageScale="1" pageWidth="827" pageHeight="1169" math="0" shadow="0">
      <root>
        <mxCell id="0" />
        <mxCell id="1" parent="0" />
        <mxCell id="Qi2F_NPSz92GtJcu_lA_-3" style="edgeStyle=orthogonalEdgeStyle;rounded=0;orthogonalLoop=1;jettySize=auto;html=1;entryX=0.5;entryY=0;entryDx=0;entryDy=0;" edge="1" parent="1" source="Qi2F_NPSz92GtJcu_lA_-1" target="Qi2F_NPSz92GtJcu_lA_-2">
          <mxGeometry relative="1" as="geometry" />
        </mxCell>
        <mxCell id="Qi2F_NPSz92GtJcu_lA_-6" style="edgeStyle=orthogonalEdgeStyle;rounded=0;orthogonalLoop=1;jettySize=auto;html=1;entryX=0.5;entryY=0;entryDx=0;entryDy=0;" edge="1" parent="1" source="Qi2F_NPSz92GtJcu_lA_-1" target="Qi2F_NPSz92GtJcu_lA_-4">
          <mxGeometry relative="1" as="geometry" />
        </mxCell>
        <mxCell id="Qi2F_NPSz92GtJcu_lA_-1" value="已核准编辑" style="rounded=0;whiteSpace=wrap;html=1;" vertex="1" parent="1">
          <mxGeometry x="160" y="80" width="120" height="60" as="geometry" />
        </mxCell>
        <mxCell id="Qi2F_NPSz92GtJcu_lA_-2" value="一个以返利供应商形式引入的子公司进行编辑" style="rounded=0;whiteSpace=wrap;html=1;" vertex="1" parent="1">
          <mxGeometry x="530" y="200" width="120" height="60" as="geometry" />
        </mxCell>
        <mxCell id="Qi2F_NPSz92GtJcu_lA_-12" style="edgeStyle=orthogonalEdgeStyle;rounded=0;orthogonalLoop=1;jettySize=auto;html=1;entryX=0.5;entryY=0;entryDx=0;entryDy=0;" edge="1" parent="1" source="Qi2F_NPSz92GtJcu_lA_-4" target="Qi2F_NPSz92GtJcu_lA_-9">
          <mxGeometry relative="1" as="geometry" />
        </mxCell>
        <mxCell id="Qi2F_NPSz92GtJcu_lA_-4" value="集团账号编辑供应商/未引入的子公司编辑供应商" style="rounded=0;whiteSpace=wrap;html=1;" vertex="1" parent="1">
          <mxGeometry x="20" y="200" width="120" height="60" as="geometry" />
        </mxCell>
        <mxCell id="Qi2F_NPSz92GtJcu_lA_-13" style="edgeStyle=orthogonalEdgeStyle;rounded=0;orthogonalLoop=1;jettySize=auto;html=1;entryX=0.5;entryY=0;entryDx=0;entryDy=0;exitX=0;exitY=0.5;exitDx=0;exitDy=0;" edge="1" parent="1" source="Qi2F_NPSz92GtJcu_lA_-9" target="Qi2F_NPSz92GtJcu_lA_-10">
          <mxGeometry relative="1" as="geometry">
            <mxPoint x="-100" y="490" as="targetPoint" />
          </mxGeometry>
        </mxCell>
        <mxCell id="Qi2F_NPSz92GtJcu_lA_-15" value="是" style="edgeLabel;html=1;align=center;verticalAlign=middle;resizable=0;points=[];" vertex="1" connectable="0" parent="Qi2F_NPSz92GtJcu_lA_-13">
          <mxGeometry x="-0.0811" y="1" relative="1" as="geometry">
            <mxPoint as="offset" />
          </mxGeometry>
        </mxCell>
        <mxCell id="Qi2F_NPSz92GtJcu_lA_-14" style="edgeStyle=orthogonalEdgeStyle;rounded=0;orthogonalLoop=1;jettySize=auto;html=1;entryX=0.5;entryY=0;entryDx=0;entryDy=0;exitX=1;exitY=0.5;exitDx=0;exitDy=0;" edge="1" parent="1" source="Qi2F_NPSz92GtJcu_lA_-9" target="Qi2F_NPSz92GtJcu_lA_-11">
          <mxGeometry relative="1" as="geometry">
            <mxPoint x="270" y="490" as="targetPoint" />
          </mxGeometry>
        </mxCell>
        <mxCell id="Qi2F_NPSz92GtJcu_lA_-16" value="否" style="edgeLabel;html=1;align=center;verticalAlign=middle;resizable=0;points=[];" vertex="1" connectable="0" parent="Qi2F_NPSz92GtJcu_lA_-14">
          <mxGeometry x="-0.0051" y="-3" relative="1" as="geometry">
            <mxPoint as="offset" />
          </mxGeometry>
        </mxCell>
        <mxCell id="Qi2F_NPSz92GtJcu_lA_-9" value="已引入公司是否都是仅返利供应商" style="rhombus;whiteSpace=wrap;html=1;" vertex="1" parent="1">
          <mxGeometry x="-45" y="320" width="250" height="80" as="geometry" />
        </mxCell>
        <mxCell id="Qi2F_NPSz92GtJcu_lA_-10" value="只能编辑曾用名，税号，供应商名称" style="rounded=0;whiteSpace=wrap;html=1;" vertex="1" parent="1">
          <mxGeometry x="-150" y="500" width="120" height="60" as="geometry" />
        </mxCell>
        <mxCell id="Qi2F_NPSz92GtJcu_lA_-11" value="可编辑所有字段" style="rounded=0;whiteSpace=wrap;html=1;" vertex="1" parent="1">
          <mxGeometry x="200" y="500" width="120" height="60" as="geometry" />
        </mxCell>
      </root>
    </mxGraphModel>
  </diagram>
</mxfile>
